<svg width="77" height="54" viewBox="0 0 77 54" fill="none" xmlns="http://www.w3.org/2000/svg">
<path d="M20.2799 0.20367C19.8539 -0.230967 19.123 0.07609 19.123 0.690203V15.0029C19.123 15.55 19.3371 16.0755 19.7155 16.4625L35.5808 32.6414C36.0068 33.076 36.7377 32.769 36.7377 32.1548V18.2703C36.7377 17.4486 36.4177 16.6615 35.8468 16.0798L20.2799 0.20367Z" fill="url(#paint0_radial_0_1)"/>
<path d="M56.1774 0.20367L40.3445 16.0798C39.765 16.6615 39.4385 17.4486 39.4385 18.2703V32.1548C39.4385 32.769 40.1823 33.076 40.6148 32.6414L56.7504 16.4625C57.1375 16.0755 57.3537 15.55 57.3537 15.0029V0.690203C57.3537 0.07609 56.6098 -0.230967 56.1774 0.20367Z" fill="url(#paint1_radial_0_1)"/>
<path d="M9.80599 38.7263H8.17124C8.09988 38.7263 8.03717 38.7717 8.01555 38.8388L5.0877 47.9207L2.17499 38.8388C2.15336 38.7717 2.09065 38.7263 2.0193 38.7263H0.163984C0.0515404 38.7263 -0.0263049 38.8366 0.008293 38.9426L3.71892 49.9512C3.74054 50.0182 3.80325 50.0615 3.87461 50.0615H6.08239C6.15159 50.0615 6.21429 50.0161 6.23808 49.9512L9.96384 38.9426C10.0006 38.8366 9.9206 38.7263 9.80815 38.7263H9.80599Z" fill="#333333"/>
<path d="M11.7306 38.2029C11.097 38.2029 10.5889 38.6786 10.5889 39.3122C10.5889 39.9458 11.097 40.4063 11.7306 40.4063C12.3642 40.4063 12.8723 39.9306 12.8723 39.3122C12.8723 38.6937 12.3642 38.2029 11.7306 38.2029Z" fill="#333333"/>
<path d="M12.5496 41.7708H10.9602C10.8695 41.7708 10.7959 41.8443 10.7959 41.9351V49.8969C10.7959 49.9877 10.8695 50.0613 10.9602 50.0613H12.5496C12.6403 50.0613 12.7139 49.9877 12.7139 49.8969V41.9351C12.7139 41.8443 12.6403 41.7708 12.5496 41.7708Z" fill="#333333"/>
<path d="M15.7224 37.9348H14.1331C14.0423 37.9348 13.9688 38.0084 13.9688 38.0992V49.8992C13.9688 49.99 14.0423 50.0635 14.1331 50.0635H15.7224C15.8132 50.0635 15.8868 49.99 15.8868 49.8992V38.0992C15.8868 38.0084 15.8132 37.9348 15.7224 37.9348Z" fill="#333333"/>
<path d="M18.8943 37.9348H17.305C17.2142 37.9348 17.1406 38.0084 17.1406 38.0992V49.8992C17.1406 49.99 17.2142 50.0635 17.305 50.0635H18.8943C18.9851 50.0635 19.0586 49.99 19.0586 49.8992V38.0992C19.0586 38.0084 18.9851 37.9348 18.8943 37.9348Z" fill="#333333"/>
<path d="M23.8741 41.5957C22.0815 41.5957 20.5829 42.3525 20.3429 44.1495C20.3299 44.2489 20.4035 44.3376 20.5051 44.3376H22.0317C22.1117 44.3376 22.1831 44.2814 22.1982 44.2035C22.3301 43.4618 22.821 43.038 23.7638 43.038C24.8904 43.038 25.2688 43.5937 25.2688 44.703V45.1312H24.2373C21.8587 45.1312 19.9883 45.8296 19.9883 47.7628C19.9883 49.4905 21.2403 50.2192 22.7626 50.2192C24.0319 50.2192 24.7606 49.7586 25.2991 49.0451V49.897C25.2991 49.9879 25.3726 50.0614 25.4634 50.0614H27.0225C27.1133 50.0614 27.1868 49.9879 27.1868 49.897V44.623C27.1868 42.3569 25.7272 41.5957 23.8741 41.5957ZM25.2688 47.1595C25.2688 48.2212 24.3974 48.8396 23.2232 48.8396C22.2717 48.8396 21.8912 48.3791 21.8912 47.6828C21.8912 46.6686 22.8275 46.3356 24.2849 46.3356H25.2688V47.1595Z" fill="#333333"/>
<path d="M36.3449 41.7709H34.7534C34.6625 41.7709 34.589 41.8444 34.589 41.9352V43.0402C34.1133 42.2163 33.2894 41.5979 31.925 41.5979C29.7842 41.5979 28.1992 43.3408 28.1992 45.6718V45.7821C28.1992 48.1758 29.7994 49.7306 31.8774 49.7306C33.0991 49.7306 34.1284 48.9846 34.589 48.1931V49.4127C34.589 50.1047 34.4117 50.6366 34.0701 51.0085C33.6787 51.4345 33.071 51.6486 32.2731 51.6486C31.5985 51.6486 31.1033 51.5102 30.7638 51.255C30.5065 51.0604 30.34 50.7966 30.2556 50.4744C30.2362 50.4031 30.1756 50.3512 30.0999 50.3512H28.4868C28.383 50.3512 28.3073 50.4463 28.3268 50.5501C28.4565 51.2183 28.7679 51.8021 29.2977 52.2432C29.9443 52.7838 30.9195 53.1104 32.2904 53.1104C34.8593 53.1104 36.4919 51.8886 36.507 49.4473V41.9374C36.507 41.8466 36.4335 41.7731 36.3427 41.7731L36.3449 41.7709ZM34.6539 45.7194C34.6539 47.3044 33.6873 48.2558 32.3553 48.2558C31.1184 48.2558 30.167 47.3044 30.167 45.7669V45.6394C30.167 44.1344 30.9908 43.1029 32.418 43.1029C33.8452 43.1029 34.6539 44.0392 34.6539 45.6069V45.7172V45.7194Z" fill="#333333"/>
<path d="M41.5629 41.5957C39.2016 41.5957 37.4414 43.3083 37.4414 45.875V46.0026C37.4414 48.6191 39.2016 50.2192 41.6429 50.2192C43.6863 50.2192 45.0702 49.3391 45.4119 47.7174C45.4335 47.6114 45.3578 47.5249 45.2519 47.5249H43.7253C43.6474 47.5249 43.5847 47.579 43.5652 47.6547C43.3836 48.3834 42.7846 48.7942 41.6905 48.7942C40.2633 48.7942 39.4719 47.9055 39.407 46.3378H45.3146C45.4054 46.3378 45.4768 46.2643 45.4768 46.1756V45.7842C45.4768 42.8196 43.6215 41.6 41.5607 41.6L41.5629 41.5957ZM39.4394 45.0512C39.6297 43.7667 40.406 42.9904 41.5629 42.9904C42.7198 42.9904 43.4809 43.624 43.5761 45.0512H39.4394Z" fill="#333333"/>
<path d="M50.3069 38.7285H47.5218C47.4309 38.7285 47.3574 38.802 47.3574 38.8929V49.8993C47.3574 49.9901 47.4309 50.0637 47.5218 50.0637H50.2745C54.1429 50.0637 55.9485 47.5748 55.9485 44.4372V44.2945C55.9485 41.1396 54.0456 38.7307 50.3047 38.7307L50.3069 38.7285ZM55.0295 44.4199C55.0295 47.3045 53.4596 49.3328 50.242 49.3328H48.244V39.4572H50.2247C53.5526 39.4572 55.0273 41.5028 55.0273 44.2923V44.4199H55.0295Z" fill="#333333"/>
<path d="M61.3156 38.8366C61.2918 38.7718 61.2313 38.7285 61.1621 38.7285H60.2193C60.1501 38.7285 60.0895 38.7718 60.0657 38.8366L56.1086 49.8431C56.0697 49.949 56.1497 50.0615 56.2621 50.0615H56.7552C56.8243 50.0615 56.8849 50.0182 56.9087 49.9534L58.1066 46.5909H63.2098L64.4229 49.9534C64.4467 50.0182 64.5072 50.0615 64.5764 50.0615H65.117C65.2295 50.0615 65.3095 49.949 65.2706 49.8431L61.3134 38.8366H61.3156ZM58.3596 45.8773L60.6582 39.4572L62.9568 45.8773H58.3596Z" fill="#333333"/>
<path d="M70.9625 38.603C67.7773 38.603 65.4463 41.1243 65.4463 44.342V44.4695C65.4463 47.6396 67.76 50.1912 70.9949 50.1912C74.2298 50.1912 76.4787 47.6396 76.4787 44.4371V44.3095C76.4787 41.1244 74.165 38.603 70.9625 38.603ZM75.5597 44.4198C75.5597 47.3195 73.7044 49.4451 70.9949 49.4451C68.2855 49.4451 66.3502 47.3368 66.3502 44.4522V44.3247C66.3502 41.4725 68.1882 39.3317 70.9625 39.3317C73.7368 39.3317 75.5597 41.5352 75.5597 44.2922V44.4198Z" fill="#333333"/>
<defs>
<radialGradient id="paint0_radial_0_1" cx="0" cy="0" r="1" gradientUnits="userSpaceOnUse" gradientTransform="translate(38.593 0.977797) scale(39.4978 39.4978)">
<stop offset="0.29" stop-color="#44C8D6"/>
<stop offset="0.33" stop-color="#4FC6D6"/>
<stop offset="0.4" stop-color="#6EC2D7"/>
<stop offset="0.5" stop-color="#A1BBD8"/>
<stop offset="0.61" stop-color="#E6B2DA"/>
<stop offset="0.63" stop-color="#F7B0DB"/>
<stop offset="0.78" stop-color="#FFBD00"/>
</radialGradient>
<radialGradient id="paint1_radial_0_1" cx="0" cy="0" r="1" gradientUnits="userSpaceOnUse" gradientTransform="translate(38.593 0.108526) scale(39.4978 39.4978)">
<stop offset="0.29" stop-color="#44C8D6"/>
<stop offset="0.33" stop-color="#4FC6D6"/>
<stop offset="0.4" stop-color="#6EC2D7"/>
<stop offset="0.5" stop-color="#A1BBD8"/>
<stop offset="0.61" stop-color="#E6B2DA"/>
<stop offset="0.63" stop-color="#F7B0DB"/>
<stop offset="0.78" stop-color="#FFBD00"/>
</radialGradient>
</defs>
</svg>
